<mxfile host="app.diagrams.net" modified="2023-05-03T17:34:16.006Z" agent="Mozilla/5.0 (Windows NT 10.0; Win64; x64) AppleWebKit/537.36 (KHTML, like Gecko) Chrome/112.0.0.0 Safari/537.36" etag="WR0g6T7CUW6cFgC7g6MG" version="21.2.7" type="device">
  <diagram id="C5RBs43oDa-KdzZeNtuy" name="Page-1">
    <mxGraphModel dx="1189" dy="571" grid="1" gridSize="10" guides="1" tooltips="1" connect="1" arrows="1" fold="1" page="1" pageScale="1" pageWidth="827" pageHeight="1169" math="0" shadow="0">
      <root>
        <mxCell id="WIyWlLk6GJQsqaUBKTNV-0" />
        <mxCell id="WIyWlLk6GJQsqaUBKTNV-1" parent="WIyWlLk6GJQsqaUBKTNV-0" />
        <mxCell id="CXlaB07CgzBHS2xfi4aG-20" style="edgeStyle=orthogonalEdgeStyle;rounded=0;orthogonalLoop=1;jettySize=auto;html=1;exitX=0.5;exitY=1;exitDx=0;exitDy=0;entryX=0.5;entryY=0;entryDx=0;entryDy=0;" parent="WIyWlLk6GJQsqaUBKTNV-1" source="CXlaB07CgzBHS2xfi4aG-3" target="CXlaB07CgzBHS2xfi4aG-6" edge="1">
          <mxGeometry relative="1" as="geometry" />
        </mxCell>
        <mxCell id="CXlaB07CgzBHS2xfi4aG-24" style="edgeStyle=orthogonalEdgeStyle;rounded=0;orthogonalLoop=1;jettySize=auto;html=1;exitX=0.5;exitY=1;exitDx=0;exitDy=0;entryX=0.5;entryY=0;entryDx=0;entryDy=0;" parent="WIyWlLk6GJQsqaUBKTNV-1" source="CXlaB07CgzBHS2xfi4aG-3" target="CXlaB07CgzBHS2xfi4aG-22" edge="1">
          <mxGeometry relative="1" as="geometry" />
        </mxCell>
        <mxCell id="O-nfP3FI_-4oS2DhcNt1-0" value="" style="group" parent="WIyWlLk6GJQsqaUBKTNV-1" vertex="1" connectable="0">
          <mxGeometry x="920" y="150" width="250" height="150" as="geometry" />
        </mxCell>
        <mxCell id="O-nfP3FI_-4oS2DhcNt1-1" value="&lt;p style=&quot;margin:0px;margin-top:4px;text-align:center;&quot;&gt;&lt;i&gt;&amp;lt;&amp;lt;Interface&amp;gt;&amp;gt;&lt;/i&gt;&lt;br&gt;&lt;b&gt;Container&lt;/b&gt;&lt;/p&gt;&lt;hr size=&quot;1&quot;&gt;&lt;p style=&quot;margin:0px;margin-left:4px;&quot;&gt;&lt;span style=&quot;background-color: initial;&quot;&gt;+ is_empty()&lt;/span&gt;&lt;br&gt;&lt;/p&gt;&lt;p style=&quot;margin:0px;margin-left:4px;&quot;&gt;+ get_size()&amp;nbsp;&lt;span style=&quot;background-color: initial;&quot;&gt;&lt;br&gt;&lt;/span&gt;&lt;/p&gt;" style="verticalAlign=top;align=left;overflow=fill;fontSize=12;fontFamily=Helvetica;html=1;whiteSpace=wrap;" parent="O-nfP3FI_-4oS2DhcNt1-0" vertex="1">
          <mxGeometry y="10" width="240" height="80" as="geometry" />
        </mxCell>
        <mxCell id="O-nfP3FI_-4oS2DhcNt1-6" style="edgeStyle=orthogonalEdgeStyle;rounded=0;orthogonalLoop=1;jettySize=auto;html=1;exitX=0.5;exitY=1;exitDx=0;exitDy=0;entryX=0.5;entryY=0;entryDx=0;entryDy=0;" parent="WIyWlLk6GJQsqaUBKTNV-1" source="O-nfP3FI_-4oS2DhcNt1-1" target="CXlaB07CgzBHS2xfi4aG-3" edge="1">
          <mxGeometry relative="1" as="geometry" />
        </mxCell>
        <mxCell id="0L0RZOjDNf1h014nJdSY-2" value="" style="group" vertex="1" connectable="0" parent="WIyWlLk6GJQsqaUBKTNV-1">
          <mxGeometry x="560" y="310" width="210" height="90" as="geometry" />
        </mxCell>
        <mxCell id="CXlaB07CgzBHS2xfi4aG-3" value="&lt;p style=&quot;margin:0px;margin-top:4px;text-align:center;&quot;&gt;&lt;i&gt;&amp;lt;&amp;lt;Interface&amp;gt;&amp;gt;&lt;/i&gt;&lt;br&gt;&lt;b&gt;LinkedList&lt;/b&gt;&lt;/p&gt;&lt;hr size=&quot;1&quot;&gt;&lt;p style=&quot;margin:0px;margin-left:4px;&quot;&gt;&lt;span style=&quot;background-color: initial;&quot;&gt;+ insert_front(t : T)&lt;/span&gt;&lt;br&gt;&lt;/p&gt;" style="verticalAlign=top;align=left;overflow=fill;fontSize=12;fontFamily=Helvetica;html=1;whiteSpace=wrap;" parent="0L0RZOjDNf1h014nJdSY-2" vertex="1">
          <mxGeometry y="10" width="200" height="80" as="geometry" />
        </mxCell>
        <mxCell id="CXlaB07CgzBHS2xfi4aG-4" value="T" style="fontStyle=0;dashed=1;html=1;whiteSpace=wrap;" parent="0L0RZOjDNf1h014nJdSY-2" vertex="1">
          <mxGeometry x="180" width="30" height="30" as="geometry" />
        </mxCell>
        <mxCell id="0L0RZOjDNf1h014nJdSY-4" value="" style="group" vertex="1" connectable="0" parent="WIyWlLk6GJQsqaUBKTNV-1">
          <mxGeometry x="280" y="470" width="370" height="130" as="geometry" />
        </mxCell>
        <mxCell id="CXlaB07CgzBHS2xfi4aG-22" value="&lt;p style=&quot;margin:0px;margin-top:4px;text-align:center;&quot;&gt;&lt;i&gt;&amp;lt;&amp;lt;Interface&amp;gt;&amp;gt;&lt;/i&gt;&lt;br&gt;&lt;b&gt;AbstractDoublyLinkedList&lt;/b&gt;&lt;/p&gt;&lt;hr size=&quot;1&quot;&gt;&amp;nbsp;+ get_front() : DoublyLinkedListIterator&amp;lt;T&amp;gt;&lt;br&gt;&lt;div&gt;&amp;nbsp;+ insert_after(predecessor : DoublyLinkedListNode&amp;lt;T&amp;gt;, t : T)&lt;/div&gt;&lt;div&gt;&amp;nbsp;+ get_end() : DoublyLinkedListIterator&amp;lt;T&amp;gt;&lt;/div&gt;&lt;div&gt;&amp;nbsp;+ remove(node : DoublyLinkedListNode&amp;lt;T&amp;gt;)&lt;/div&gt;" style="verticalAlign=top;align=left;overflow=fill;fontSize=12;fontFamily=Helvetica;html=1;whiteSpace=wrap;" parent="0L0RZOjDNf1h014nJdSY-4" vertex="1">
          <mxGeometry y="10" width="360" height="120" as="geometry" />
        </mxCell>
        <mxCell id="O-nfP3FI_-4oS2DhcNt1-12" value="T" style="fontStyle=0;dashed=1;html=1;whiteSpace=wrap;" parent="0L0RZOjDNf1h014nJdSY-4" vertex="1">
          <mxGeometry x="340" width="30" height="30" as="geometry" />
        </mxCell>
        <mxCell id="0L0RZOjDNf1h014nJdSY-5" value="" style="group" vertex="1" connectable="0" parent="WIyWlLk6GJQsqaUBKTNV-1">
          <mxGeometry x="680" y="472" width="370" height="128" as="geometry" />
        </mxCell>
        <mxCell id="CXlaB07CgzBHS2xfi4aG-6" value="&lt;p style=&quot;margin:0px;margin-top:4px;text-align:center;&quot;&gt;&lt;i&gt;&amp;lt;&amp;lt;Interface&amp;gt;&amp;gt;&lt;/i&gt;&lt;br&gt;&lt;b style=&quot;border-color: var(--border-color);&quot;&gt;Abstract&lt;/b&gt;&lt;b&gt;SinglyLinkedList&lt;/b&gt;&lt;/p&gt;&lt;hr size=&quot;1&quot;&gt;&amp;nbsp;+ get_front() : SinglyLinkedListIterator&amp;lt;T&amp;gt;&lt;br&gt;&amp;nbsp;+ insert_after(predecessor : SinglyLinkedListNode&amp;lt;T&amp;gt;, t : T)&lt;b&gt;&lt;br&gt;&lt;/b&gt;&lt;p style=&quot;margin:0px;margin-left:4px;&quot;&gt;+ remove_front()&lt;/p&gt;&lt;p style=&quot;margin:0px;margin-left:4px;&quot;&gt;+ remove_after(predecessor : SinglyLinkedListNode&amp;lt;T&amp;gt;)&lt;/p&gt;" style="verticalAlign=top;align=left;overflow=fill;fontSize=12;fontFamily=Helvetica;html=1;whiteSpace=wrap;" parent="0L0RZOjDNf1h014nJdSY-5" vertex="1">
          <mxGeometry y="8" width="360" height="120" as="geometry" />
        </mxCell>
        <mxCell id="0L0RZOjDNf1h014nJdSY-0" value="T" style="fontStyle=0;dashed=1;html=1;whiteSpace=wrap;" vertex="1" parent="0L0RZOjDNf1h014nJdSY-5">
          <mxGeometry x="340" width="30" height="30" as="geometry" />
        </mxCell>
      </root>
    </mxGraphModel>
  </diagram>
</mxfile>
